<svg width="162" height="182" viewBox="0 0 162 182" fill="none" xmlns="http://www.w3.org/2000/svg">
<path d="M4.15823 181.031C6.48823 174.041 8.92823 166.571 14.5982 161.491C16.3082 159.951 18.2083 158.701 20.1783 157.531C25.3283 158.001 30.1183 154.821 34.1483 151.971C39.8683 147.931 44.6182 143.801 47.4682 137.301C47.6382 136.921 47.7883 136.541 47.9483 136.161C48.5983 135.481 49.2283 134.771 49.8183 134.031C54.0383 128.721 55.9783 122.071 56.5683 115.411C56.7883 112.951 56.8283 110.481 56.7583 108.011C57.6883 105.201 58.7183 102.431 59.9383 99.7215C60.1683 99.6815 60.3983 99.6415 60.6383 99.6115C66.4983 98.6715 71.9483 97.0115 76.4483 93.0215C79.5783 90.2415 82.0283 86.8215 84.0583 83.1815C89.7883 82.9115 95.5383 82.9615 101.268 83.3515C103.918 83.5315 106.738 84.1015 109.368 83.4715C111.668 82.9215 113.468 81.3915 115.018 79.6815C119.608 74.5915 121.328 67.6915 123.208 61.3115C124.198 57.9415 125.388 54.2015 128.098 51.7715C129.008 50.9515 130.058 50.3415 131.168 49.9515C131.118 50.8415 131.068 51.7215 131.018 52.6015C129.948 52.9615 128.998 53.7515 128.298 55.0915C126.968 57.6415 126.468 60.6615 125.898 63.4515C125.188 66.9515 124.318 70.3315 122.698 73.5315C121.088 76.7215 118.898 79.7615 116.208 82.1415C115.008 83.2015 113.698 84.1815 112.118 84.6115C110.098 85.1715 107.918 84.7615 105.868 84.6215C99.8083 84.2215 93.4582 84.6215 87.6082 86.3015C75.3182 89.8315 72.1483 104.231 68.4983 114.731C64.3983 126.511 59.7482 138.511 51.6082 148.191C46.7582 153.961 40.6283 157.821 34.6283 162.271C29.2983 166.221 24.1883 171.191 23.2783 178.021C23.2483 178.251 23.6283 178.341 23.6783 178.111C26.9683 165.001 41.2883 160.341 49.8883 151.361C57.6783 143.221 62.6083 132.881 66.5683 122.491C68.6883 116.911 70.4583 111.211 72.5482 105.631C74.8182 99.5615 77.8483 92.8015 83.8183 89.4815C89.1483 86.5115 96.3883 86.0315 102.378 86.0815C105.138 86.1115 107.968 86.6615 110.718 86.4415C113.278 86.2315 115.358 85.0315 117.238 83.3715C122.038 79.1315 125.588 73.5015 127.338 67.3715C128.308 63.9715 128.708 60.3815 129.948 57.0615C130.248 56.2615 130.608 55.6515 131.018 55.2015C131.268 55.8215 131.848 56.2815 132.568 56.3615C140.048 57.1715 147.658 57.2715 153.158 51.3815C158.418 45.7515 161.578 37.9415 161.888 30.3015C162.178 23.0915 159.878 15.9715 155.238 10.3915C150.148 4.26147 143.428 1.50147 135.678 0.281471C133.658 -0.0385286 131.688 -0.228531 129.738 0.521469C127.928 1.23147 126.428 2.51147 124.918 3.69147C121.368 6.47147 117.758 7.82147 113.528 6.83147C109.778 4.43147 107.188 -1.22853 102.018 0.56147C95.6483 2.76147 96.9883 10.6215 97.6783 15.6515C98.7583 23.5115 98.4583 32.6615 94.4883 39.7615C94.0383 40.5615 93.5483 41.2815 93.0083 41.9515C92.5983 41.9115 92.1982 41.8815 91.7882 41.8615C85.8582 41.5215 78.8983 41.6715 73.7083 44.9015C70.7383 46.7515 68.6283 49.5415 66.8983 52.5815C62.0483 52.5115 57.8082 54.3715 54.9682 59.0615C52.8482 62.5615 52.0783 66.5615 51.6483 70.6415C49.9283 73.0215 48.4483 75.5815 47.2683 78.3015C44.9483 83.6715 44.1982 89.4415 43.6682 95.2615C42.7782 96.3115 41.8483 97.3315 40.8783 98.3115C38.4283 100.801 35.7183 102.991 32.8083 104.931C30.0883 106.741 27.2482 108.431 24.9182 110.751C21.4582 114.181 20.0083 118.591 19.3683 123.201C18.2883 123.861 17.2483 124.581 16.2483 125.351C2.53826 136.001 -0.561724 156.081 0.0782758 172.291C0.0782758 172.541 0.438239 172.581 0.478239 172.321C0.998239 168.821 1.31825 165.301 1.67825 161.791C1.70825 161.771 1.73827 161.741 1.75827 161.691C2.75827 159.171 4.19826 156.901 5.87826 154.781C6.56826 154.591 7.24824 154.381 7.91824 154.151C7.24824 154.371 6.57828 154.571 5.89828 154.751C6.63828 153.821 7.41825 152.911 8.23825 152.031C8.18825 152.711 8.15826 153.391 8.12826 154.071C8.05826 155.631 8.02828 157.191 8.01828 158.721C8.01828 159.001 8.44828 159.041 8.45828 158.751C8.51828 157.121 8.63824 155.491 8.78824 153.851C10.5482 153.241 12.2682 152.491 13.9082 151.611C13.9082 151.611 13.9083 151.611 13.9283 151.611C15.5983 151.641 17.2283 151.481 18.8083 151.181C18.8083 152.071 18.8183 152.951 18.8283 153.841C15.0883 156.491 11.7482 159.601 9.23825 163.651C9.15825 163.781 9.34826 163.921 9.43826 163.791C11.9283 159.971 15.1983 157.031 18.8383 154.511C18.8383 155.231 18.8382 155.951 18.8482 156.671C18.7182 156.921 18.8283 157.281 19.1983 157.351C19.2283 157.351 19.2682 157.351 19.2982 157.361C17.8282 158.251 16.3882 159.191 15.0482 160.281C8.71825 165.421 6.10823 173.371 3.84823 180.861C3.78823 181.061 4.08823 181.171 4.15823 180.971V181.031ZM38.6383 147.091C33.9983 150.951 28.5083 155.271 22.3683 156.281C25.1483 154.731 27.9783 153.241 30.5283 151.341C33.1683 149.371 35.3082 146.951 37.0982 144.271C37.2382 144.191 37.3783 144.111 37.5183 144.031C40.2683 142.411 42.9583 140.621 45.3883 138.551C43.7283 141.731 41.5983 144.641 38.6383 147.091ZM54.2282 124.541C53.0082 128.241 51.1083 131.471 48.6883 134.301C51.7883 126.291 53.6283 117.851 56.1983 109.671C56.2583 114.691 55.8182 119.701 54.2282 124.541ZM56.0683 105.971C53.8083 112.331 52.1182 118.931 50.2282 125.361C49.0582 129.321 47.8783 133.271 46.1883 136.921C44.7883 138.241 43.2683 139.461 41.6383 140.591C40.4483 141.421 39.2083 142.201 37.9483 142.951C39.3083 140.721 40.4682 138.341 41.4782 135.931C43.2982 131.621 44.7782 127.181 46.1582 122.721C48.4882 116.461 50.2683 109.951 52.4483 103.731C52.7783 102.801 53.1082 101.861 53.4682 100.911C54.1882 100.751 54.9183 100.601 55.6483 100.461C55.8183 102.291 55.9683 104.131 56.0683 105.971ZM18.7583 143.441C16.6583 145.461 14.2382 147.151 11.6582 148.641C13.5882 146.821 15.5783 145.071 17.4583 143.311C17.8883 142.911 18.3283 142.511 18.7583 142.111C18.7583 142.551 18.7583 142.991 18.7583 143.441ZM19.7783 141.171C20.7483 140.281 21.7183 139.401 22.6983 138.511C21.8383 139.961 20.8282 141.271 19.7182 142.471C19.7382 142.041 19.7583 141.611 19.7783 141.171ZM21.8482 142.171C23.3782 140.281 24.5083 138.201 25.4283 136.011C28.3983 133.271 31.3083 130.471 34.0183 127.501C37.4983 123.671 40.0183 119.491 41.6283 114.821C41.7483 114.721 41.8783 114.631 41.9983 114.521C44.4483 112.381 46.3582 109.691 47.9883 106.911C49.0083 105.171 49.9383 103.381 50.8083 101.571C51.1183 101.481 51.4283 101.401 51.7483 101.321C51.6583 101.631 51.5682 101.941 51.4782 102.241C49.7282 108.211 48.2283 114.251 46.5083 120.221C45.6283 122.751 44.6783 125.241 43.5883 127.691C38.9683 138.051 30.6582 148.151 19.2982 150.821C19.4082 148.731 19.5283 146.651 19.6283 144.561C20.4283 143.811 21.1782 143.021 21.8582 142.171H21.8482ZM46.1283 103.231C47.1083 102.791 48.1083 102.401 49.1283 102.071C47.3383 105.761 45.2283 109.461 42.3883 112.331C42.6383 111.411 42.8483 110.471 43.0283 109.521C44.1883 107.511 45.2183 105.401 46.1283 103.241V103.231ZM43.6983 105.081C43.7283 104.861 43.7483 104.641 43.7783 104.421C43.8783 104.361 43.9683 104.321 44.0683 104.261C43.9483 104.531 43.8283 104.801 43.6983 105.081ZM42.3183 107.861C40.8683 110.601 39.1083 113.231 36.8883 115.401C36.3583 115.911 35.8183 116.381 35.2583 116.801C34.0783 117.221 32.8783 117.601 31.6883 117.971C34.0083 113.131 37.2183 108.881 41.7783 105.681C42.0883 105.461 42.4082 105.251 42.7282 105.051C42.6082 105.991 42.4783 106.931 42.3183 107.861ZM41.4583 112.041C41.3283 112.551 41.1882 113.071 41.0382 113.581C40.4582 114.071 39.8483 114.521 39.2083 114.941C40.0083 114.041 40.7583 113.071 41.4583 112.051V112.041ZM36.0183 117.901C37.5283 117.341 38.9582 116.671 40.2982 115.791C39.4582 118.071 38.3682 120.271 36.9082 122.371C33.9182 126.691 30.1182 130.491 26.1582 134.131C27.5182 130.401 28.4182 126.461 29.7182 122.751C29.9482 122.091 30.1983 121.441 30.4483 120.801C32.5083 120.161 34.3583 119.161 36.0183 117.901ZM104.718 50.7715C105.698 49.4915 106.448 48.0615 107.048 46.5715C107.478 46.4815 107.918 46.4115 108.378 46.3715C109.188 46.2915 110.018 46.2715 110.858 46.2615C108.258 52.2415 103.878 57.2515 98.1582 60.5915C96.3782 61.6315 94.4982 62.5015 92.5482 63.1815C92.9482 62.2515 93.3582 61.3215 93.7982 60.4015C94.2582 59.4315 94.7483 58.4415 95.2783 57.4415C98.8883 55.7815 102.368 53.8515 104.718 50.7815V50.7715ZM96.3183 55.6015C98.5983 51.7915 101.538 48.3115 105.668 46.9415C105.588 47.1115 105.518 47.2915 105.438 47.4615C103.548 51.3815 100.208 53.7315 96.3582 55.5915C96.3482 55.5915 96.3283 55.6015 96.3183 55.6115V55.6015ZM111.808 43.7815C111.788 43.8415 111.768 43.9015 111.748 43.9715C111.588 44.4415 111.408 44.9015 111.228 45.3615C109.968 45.3115 108.708 45.3115 107.468 45.4515C107.538 45.2615 107.588 45.0815 107.648 44.8915C109.138 44.7815 110.538 44.4315 111.798 43.7815H111.808ZM101.718 43.3415C101.008 43.2015 100.288 43.0715 99.5783 42.9315C100.248 41.4215 100.788 39.8415 101.188 38.2415C102.248 34.0215 102.498 29.6715 102.328 25.3315C102.148 20.7815 101.328 16.1715 101.958 11.6315C102.178 10.0715 102.318 7.90147 104.318 7.59147C105.238 7.45147 106.698 8.82147 107.448 9.39147C108.988 10.5615 110.368 12.0015 112.088 12.9115C112.188 12.9615 112.278 13.0115 112.378 13.0615C109.278 19.8815 110.108 28.0815 108.828 35.3215C108.318 38.1815 107.728 41.1615 106.798 43.9815C105.088 43.9615 103.348 43.6515 101.708 43.3315L101.718 43.3415ZM115.698 58.3415C110.518 65.8115 103.268 69.8815 94.3482 71.3315C92.5082 71.6315 90.6982 71.9715 88.9182 72.3615C89.4282 71.0515 89.9283 69.7315 90.4383 68.4215C96.8583 66.2115 103.058 63.5715 108.438 59.1215C112.868 55.4615 115.908 51.1915 117.748 46.1115C118.938 45.9815 120.098 45.7315 121.198 45.3015C121.048 46.0815 120.878 46.8315 120.658 47.5615C119.528 51.3015 117.948 55.1015 115.708 58.3215L115.698 58.3415ZM119.248 55.7715C118.328 57.8415 117.958 60.2115 117.668 62.4415C117.078 66.9715 116.928 73.1515 112.138 75.4515C106.858 77.9815 100.218 74.4715 94.7683 74.0615C92.5183 73.8915 90.3183 73.9715 88.1783 74.2615C88.2883 73.9715 88.3983 73.6915 88.5183 73.4015C89.6983 73.1515 90.8982 72.9415 92.0982 72.7615C96.2082 72.1415 100.298 71.6015 104.128 69.8915C107.288 68.4815 110.168 66.4715 112.658 64.0815C115.218 61.6215 117.438 58.8115 119.258 55.7715H119.248ZM90.9383 67.1315C91.2583 66.3215 91.5782 65.5115 91.9082 64.7015C91.9682 64.6815 92.0183 64.6715 92.0783 64.6515C97.3583 62.9815 102.188 59.9615 105.988 55.9615C108.698 53.1015 110.698 49.8015 112.148 46.2615C113.478 46.2715 114.818 46.3015 116.138 46.2515C112.218 57.3815 101.748 63.0715 90.9483 67.1315H90.9383ZM91.1582 63.6115C90.4182 63.8315 89.6682 64.0215 88.9182 64.1815C85.9982 64.8015 83.0282 64.5415 80.1082 64.8415C82.7682 63.3515 85.4883 61.9615 88.1783 60.6215C89.9283 59.7515 91.8183 58.9615 93.7083 58.1315C92.7783 59.9215 91.9382 61.7515 91.1582 63.6015V63.6115ZM83.6283 66.0915C85.9783 66.0215 88.2883 65.6715 90.5583 65.0815C90.2083 65.9315 89.8682 66.7915 89.5382 67.6515C86.0382 68.9215 82.5282 70.0515 79.2282 71.1415C73.8482 72.9315 68.1783 74.8415 63.5083 78.1615C66.1783 74.9415 69.2282 72.0415 72.6082 69.5615C73.9982 68.5415 75.4382 67.4815 77.0482 66.8315C79.1683 65.9815 81.3983 66.1615 83.6283 66.0915ZM69.0183 76.1115C75.4083 73.0315 82.3282 71.1515 89.0482 68.9015C88.5583 70.1615 88.0683 71.4215 87.5683 72.6815C81.6483 74.0815 75.9783 76.1015 70.5583 79.1415C65.4683 82.0015 60.8383 85.5515 56.7583 89.6515C57.6983 87.3615 58.7382 85.1415 59.9182 83.0315C60.1482 82.6715 60.3983 82.3215 60.6383 81.9715C62.9383 79.5615 65.8683 77.6315 69.0083 76.1215L69.0183 76.1115ZM87.1682 73.6915C87.0682 73.9515 86.9582 74.2115 86.8582 74.4715C80.1782 75.6815 74.1282 79.0215 69.2182 83.7715C64.3182 84.8915 60.0683 87.2615 57.1183 91.4115C56.6383 92.0815 56.1982 92.7815 55.7882 93.4915C55.7882 93.3015 55.7882 93.1215 55.7982 92.9315C55.8182 92.5715 55.8483 92.2215 55.8883 91.8715C55.9583 91.6915 56.0183 91.5215 56.0883 91.3415C56.2283 90.9815 56.3783 90.6315 56.5183 90.2715C64.9583 82.0815 75.6383 76.3415 87.1783 73.6915H87.1682ZM86.3083 75.8015C85.3983 77.9615 84.3983 80.1215 83.2683 82.2015C79.4183 82.3415 75.5383 82.6315 71.7683 83.2715C75.9683 79.6315 80.8583 76.9615 86.3083 75.8015ZM55.2882 94.3615C54.8382 95.1915 54.4282 96.0515 54.0482 96.9215C54.4582 95.7315 54.8682 94.5515 55.2982 93.3715C55.2882 93.7015 55.2883 94.0315 55.2783 94.3515L55.2882 94.3615ZM55.3283 96.4615C55.3683 97.3615 55.4383 98.2615 55.5183 99.1715C55.0183 99.2615 54.5183 99.3615 54.0183 99.4515C54.4183 98.4415 54.8483 97.4415 55.3183 96.4615H55.3283ZM51.5482 99.9715C52.1682 98.6415 52.7582 97.3015 53.3582 95.9615C52.9482 97.2515 52.5583 98.5415 52.1783 99.8315C51.9683 99.8815 51.7582 99.9315 51.5482 99.9815V99.9715ZM56.5683 104.591C56.4683 103.181 56.3182 101.771 56.1682 100.361C56.9182 100.221 57.6783 100.091 58.4383 99.9615C57.7683 101.481 57.1483 103.031 56.5683 104.591ZM56.0382 99.0715C55.9282 97.8915 55.8382 96.7015 55.7882 95.5215C57.3482 92.4915 59.3283 89.7315 62.1383 87.7615C63.8883 86.5315 65.8582 85.6915 67.9182 85.0915C66.9682 86.1015 66.0583 87.1615 65.2083 88.2715C62.7383 91.5015 60.7483 94.9715 59.0583 98.5915C58.0483 98.7515 57.0382 98.9015 56.0382 99.0815V99.0715ZM76.7182 91.1315C72.2082 95.5415 66.6883 97.3715 60.5683 98.3515C61.1283 97.1815 61.7283 96.0315 62.3783 94.8915C64.5783 91.0115 67.3083 87.4615 70.4583 84.4715C73.6683 83.8315 77.0183 83.6315 80.1383 83.4015C80.9883 83.3415 81.8483 83.2815 82.6983 83.2415C81.0483 86.1115 79.1082 88.8115 76.7282 91.1415L76.7182 91.1315ZM119.858 65.3715C118.198 71.3015 115.978 79.3815 109.648 82.0615C106.608 83.3515 102.748 82.4115 99.5482 82.2615C96.0082 82.0815 92.4682 82.0215 88.9182 82.0715C87.4882 82.0915 86.0383 82.1215 84.5783 82.1615C84.9983 81.3715 85.3983 80.5815 85.7783 79.7815C86.4383 78.3915 87.0483 76.9815 87.6383 75.5615C90.2383 75.1315 92.9682 75.0415 95.7882 75.3515C100.928 75.9115 106.638 78.7215 111.808 76.9415C116.248 75.4115 117.788 71.0915 118.478 66.8615C118.948 64.0115 119.078 61.0915 119.838 58.2915C120.718 55.0615 122.418 53.1415 125.438 51.7415C122.208 55.4315 121.118 60.8115 119.848 65.3715H119.858ZM131.208 48.3515C130.408 48.5015 129.618 48.7515 128.888 49.1015C129.778 47.8915 130.318 46.4115 130.768 44.6415C130.988 43.7615 131.168 42.8615 131.308 41.9615C131.358 44.0915 131.308 46.2315 131.208 48.3515ZM130.698 34.9115C130.858 35.9315 130.988 36.9615 131.078 38.0015C130.858 40.1315 130.478 42.2315 129.858 44.3115C129.238 46.4315 128.568 48.5715 126.558 49.8115C125.338 50.5615 123.908 50.8915 122.688 51.6415C121.668 52.2815 120.868 53.0815 120.228 54.0015C121.568 51.4815 122.638 48.8215 123.398 46.0815C123.568 45.4615 123.698 44.6615 123.838 43.7615C124.128 43.5215 124.408 43.2615 124.688 42.9815C126.988 40.5815 128.008 37.6415 128.348 34.5515C128.678 34.5015 129.038 34.4915 129.428 34.5315C129.858 34.5815 130.278 34.7215 130.688 34.9215L130.698 34.9115ZM123.988 42.8015C124.488 39.5215 125.198 35.5415 127.818 34.6715C127.358 37.8115 126.278 40.7415 123.988 42.8015ZM129.208 28.7515C129.638 30.0115 129.988 31.2815 130.268 32.5715C129.668 32.4015 129.078 32.3415 128.508 32.3815C128.558 30.2815 128.368 28.1615 128.128 26.1115C128.528 26.9615 128.898 27.8415 129.208 28.7615V28.7515ZM127.948 25.7315C128.088 27.8215 128.188 30.1315 128.048 32.4215C126.258 32.7015 124.668 33.9115 123.668 35.5915C122.128 38.1815 121.848 41.4415 121.318 44.5115C120.238 44.9915 119.118 45.2615 117.978 45.4015C118.428 44.0515 118.808 42.6415 119.098 41.1715C119.978 36.7515 120.518 31.7715 123.698 28.2815C124.798 27.0715 126.278 26.0215 127.918 25.6815C127.918 25.7015 127.938 25.7115 127.938 25.7315H127.948ZM127.188 24.2815C126.288 24.4715 125.418 24.8115 124.638 25.2915C118.008 29.4315 118.498 38.2715 116.578 44.8615C116.508 45.0815 116.438 45.3015 116.368 45.5215C115.088 45.5515 113.788 45.4815 112.488 45.4115C112.818 44.5415 113.118 43.6515 113.388 42.7615C114.368 41.9615 115.238 40.9115 115.948 39.5515C117.448 36.6715 118.158 33.4115 119.208 30.3615C119.758 28.7715 120.278 27.1415 120.988 25.6015C121.758 23.9215 123.908 21.6415 125.808 22.0315C126.298 22.7615 126.758 23.5115 127.198 24.2815H127.188ZM122.788 18.1215C123.778 19.2615 124.708 20.4415 125.558 21.6715C125.168 21.5915 124.738 21.5815 124.298 21.6415C122.298 21.9215 121.118 23.6815 120.318 25.3715C118.858 28.4615 117.888 31.7915 116.798 35.0215C116.098 37.0915 115.268 39.2915 113.868 40.9815C114.278 39.3715 114.608 37.7315 114.858 36.0815C115.508 31.7715 115.528 27.4715 115.828 23.1415C115.968 21.1615 116.328 18.4015 118.348 17.3915C119.908 16.6115 121.448 17.1615 122.778 18.1215H122.788ZM121.198 16.3615C120.628 16.1315 120.008 16.0115 119.348 16.0615C116.998 16.2115 115.668 18.2515 115.118 20.3215C114.188 23.7715 114.518 27.5815 114.218 31.1315C113.898 34.9815 113.328 38.8315 112.218 42.5415C111.758 42.8615 111.268 43.1315 110.718 43.3515C109.828 43.7015 108.898 43.8915 107.958 43.9615C108.368 42.5915 108.708 41.1915 109.028 39.8315C109.928 35.9715 110.548 32.0515 110.868 28.0915C111.228 23.7415 111.268 19.2515 112.678 15.0715C112.848 14.5615 113.038 13.9915 113.258 13.4515C114.908 14.0715 116.688 14.1915 118.158 13.3015C119.188 14.3115 120.208 15.3315 121.198 16.3715V16.3615ZM117.888 13.0215C116.408 13.5815 114.978 13.3215 113.628 12.6715C113.748 12.4515 113.878 12.2315 114.028 12.0415C114.358 11.5915 115.008 11.1615 115.708 10.9315C116.438 11.6315 117.178 12.3315 117.898 13.0315L117.888 13.0215ZM98.6082 31.2515C99.4382 27.1615 99.7483 22.9615 99.4983 18.7915C99.2483 14.7215 97.5283 10.0015 98.9283 6.01147C99.5683 4.18147 101.018 2.29147 103.018 1.87147C105.008 1.44147 106.698 2.69147 108.128 3.89147C109.268 4.84147 110.328 5.85147 111.508 6.60147C111.458 6.70147 111.448 6.81147 111.508 6.92147C112.188 8.44147 113.208 9.38147 114.418 9.92147C113.738 10.4515 113.228 11.3415 112.788 12.2215C111.068 11.1815 109.488 9.63147 108.098 8.51147C106.728 7.41147 103.848 5.28147 102.208 7.02147C101.348 7.93147 101.178 9.57147 100.968 10.7515C100.608 12.7815 100.578 14.8515 100.658 16.9015C100.818 20.9915 101.348 25.0415 101.248 29.1315C101.138 33.7915 100.408 38.5415 98.5683 42.7515C97.1583 42.5015 95.7583 42.2815 94.3383 42.1115C96.5583 38.9415 97.8383 35.1115 98.6183 31.2515H98.6082ZM98.0482 43.8515C96.6582 46.6515 94.7283 49.1815 92.1183 51.2415C89.0883 53.6215 85.3483 55.1415 81.4483 55.0615C78.9383 55.0115 76.5083 54.4115 74.0883 53.8015C76.0883 52.7915 78.1283 51.8515 80.2083 51.0015C83.3483 49.7215 86.6182 48.6515 89.4883 46.8115C91.0482 45.8115 92.3483 44.6115 93.4583 43.2615C94.9883 43.4115 96.5183 43.6215 98.0583 43.8515H98.0482ZM73.8283 46.2815C76.6983 44.2915 80.2183 43.5415 83.6483 43.1915C86.4883 42.9015 89.2383 42.9215 91.9583 43.1315C87.6383 47.5515 81.2582 49.1015 75.5982 51.7815C74.5282 52.2915 73.4682 52.8315 72.4082 53.3915C71.9982 53.2915 71.5883 53.2015 71.1783 53.1115C70.2183 52.9015 69.2782 52.7615 68.3582 52.6815C69.7782 50.2515 71.4783 47.9115 73.8283 46.2815ZM72.6483 54.8315C78.9183 56.3215 84.7083 57.2115 90.4883 53.6715C94.2783 51.3515 97.1383 47.9115 99.0783 44.0015C100.358 44.2015 101.648 44.4115 102.958 44.6215C104.168 44.8215 105.348 44.9215 106.488 44.9215C106.398 45.1615 106.318 45.4115 106.218 45.6515C106.038 45.6915 105.848 45.7215 105.668 45.7715C100.518 47.1315 97.1382 52.0015 94.6682 56.3815C88.6582 59.2615 82.6883 62.1215 76.9483 65.5015C74.4583 66.4015 72.2282 68.1815 70.2182 69.7715C69.7882 70.1115 69.3683 70.4615 68.9483 70.8215C65.4683 73.5215 62.3783 76.6215 60.0183 80.4615C59.7683 80.8715 59.5183 81.2915 59.2783 81.7215C58.9783 82.1715 58.6982 82.6315 58.4182 83.1015C57.9482 83.7815 57.5383 84.4815 57.1883 85.2015C55.5983 88.0315 54.2082 90.9815 52.8582 93.9515C51.9582 95.0315 51.0883 96.1415 50.2583 97.2815C50.2383 97.3015 50.2782 97.3315 50.2982 97.3115C51.0582 96.3115 51.8582 95.3315 52.6682 94.3815C52.1582 95.5115 51.6483 96.6415 51.1383 97.7815C50.7483 98.6415 50.3583 99.5215 49.9383 100.401C48.9083 100.691 47.8883 101.031 46.8783 101.431C48.3883 97.5515 49.5682 93.5215 50.5382 89.5515C50.7082 88.8515 50.8583 88.1415 51.0183 87.4315C56.5483 78.5415 60.2183 68.7515 64.8183 59.4115C66.8283 57.9615 68.9282 56.6215 71.0982 55.4015C71.4982 55.1715 71.9083 54.9615 72.3083 54.7415C72.4283 54.7715 72.5583 54.8015 72.6783 54.8315H72.6483ZM70.5883 54.3715C68.9783 55.2815 67.3982 56.2415 65.8582 57.2715C66.4382 56.1515 67.0383 55.0315 67.6483 53.9315C68.6283 54.0215 69.6183 54.1815 70.5883 54.3715ZM54.4483 63.9915C55.5483 60.3715 57.7182 56.7215 61.2282 54.9515C62.8082 54.1515 64.4883 53.8615 66.1883 53.8615C65.3483 55.4515 64.5882 57.0915 63.8482 58.6715C60.0282 61.4315 56.5082 64.6015 53.5382 68.2015C53.7482 66.7815 54.0383 65.3715 54.4583 63.9815L54.4483 63.9915ZM53.2383 70.5415C55.9482 66.9515 59.1882 63.7415 62.7882 60.9115C59.5882 67.7515 56.6283 74.7015 53.0183 81.3415C52.6083 82.0915 52.1883 82.8315 51.7683 83.5815C52.1383 81.4615 52.4482 79.3215 52.6682 77.1815C52.8982 74.9815 53.0183 72.7515 53.2483 70.5415H53.2383ZM45.5482 87.7915C46.5282 82.4115 48.5682 77.5315 51.4082 73.1615C51.1882 75.9715 51.0283 78.7815 50.6283 81.4515C50.3383 83.3715 49.9883 85.2915 49.5783 87.2015C48.0783 89.5515 46.4682 91.8315 44.7182 94.0015C44.9282 91.9215 45.1782 89.8515 45.5482 87.7915ZM48.7083 90.8815C47.7083 94.7615 46.4582 98.5915 44.9182 102.281C44.5882 102.441 44.2683 102.591 43.9383 102.771C44.1483 100.621 44.3083 98.4715 44.4983 96.3215C45.9983 94.5815 47.3883 92.7615 48.7083 90.8815ZM23.4082 114.771C26.7182 109.341 33.0782 106.811 37.8482 102.891C39.8582 101.241 41.7183 99.4215 43.4583 97.5015C43.2883 99.4615 43.1282 101.411 42.9182 103.351C38.2282 106.131 34.3483 110.111 31.6983 114.861C31.0383 116.051 30.4683 117.271 29.9483 118.511C28.4383 118.991 26.9382 119.491 25.4682 120.101C23.8482 120.781 22.2582 121.551 20.7182 122.411C21.1782 119.711 21.9683 117.111 23.3983 114.761L23.4082 114.771ZM23.0982 122.701C24.7082 122.061 26.4482 121.671 28.3582 121.321C28.5582 121.281 28.7383 121.241 28.9383 121.201C27.1983 126.181 26.0883 131.371 23.8983 136.201C22.5383 137.421 21.1783 138.631 19.8383 139.841C19.9083 138.231 19.9683 136.621 20.0083 135.021C20.1083 131.521 20.0382 127.761 20.4782 124.121C21.3282 123.611 22.2082 123.141 23.0982 122.701ZM18.4182 125.821C18.6582 125.571 18.8983 125.351 19.1483 125.131C18.9783 126.891 18.9083 128.661 18.8683 130.411C18.7883 133.881 18.7583 137.361 18.7583 140.831C18.3383 141.211 17.9183 141.601 17.5083 141.981C14.8583 144.461 11.9482 146.921 9.28824 149.581C10.0382 144.441 11.2882 139.361 13.1582 134.561C14.3982 131.391 16.0182 128.291 18.4082 125.821H18.4182ZM1.83829 160.191C2.27829 156.141 2.81825 152.101 3.86825 148.131C5.75825 140.961 9.06825 134.001 14.4283 128.731C14.5183 128.641 14.6083 128.561 14.6983 128.481C13.8883 129.741 13.1583 131.111 12.5283 132.561C10.1083 138.111 8.87823 144.281 8.34823 150.431C7.85823 150.681 7.36825 150.931 6.86825 151.171C6.51825 151.341 6.76825 151.821 7.11825 151.701C7.18825 151.681 7.26829 151.651 7.33829 151.621C5.03829 154.191 3.06828 156.981 1.82828 160.181L1.83829 160.191ZM14.1783 151.491C15.0283 151.021 15.8582 150.521 16.6582 149.971C15.7682 150.511 14.8682 151.021 13.9682 151.501C13.9582 151.501 13.9483 151.501 13.9383 151.501C13.8983 151.501 13.8783 151.531 13.8683 151.551C12.2183 152.431 10.5482 153.221 8.78824 153.871C8.86824 152.971 8.96828 152.071 9.07828 151.181C9.16828 151.081 9.26824 150.991 9.35824 150.891C12.7382 149.541 16.0083 147.691 18.7683 145.321C18.7683 147.191 18.7882 149.061 18.7982 150.931C17.3082 151.251 15.7683 151.441 14.1783 151.491ZM19.2583 151.131C26.7183 149.551 33.1182 144.571 37.7882 138.541C40.4782 135.061 42.5683 131.251 44.3083 127.271C42.5083 132.731 40.4982 138.401 37.3482 143.291C31.3482 146.801 24.7883 149.721 19.1183 153.661C19.1683 152.821 19.2083 151.971 19.2583 151.131ZM19.0883 154.371C24.5183 150.661 30.7483 147.891 36.4383 144.651C35.7483 145.621 35.0182 146.561 34.2182 147.441C30.5482 151.511 25.6283 153.791 20.9583 156.441C20.3983 156.481 19.8383 156.501 19.2683 156.481C19.1483 156.481 19.0582 156.511 18.9782 156.561C19.0182 155.831 19.0582 155.101 19.0982 154.371H19.0883Z" fill="#0F1B33"/>
</svg>
